<svg width="23" height="24" fill="none" xmlns="http://www.w3.org/2000/svg"><path fill-rule="evenodd" clip-rule="evenodd" d="M7.757 2.005c-.035 0-.1.008-.207.04l-.009.002c-.792.227-1.376.588-1.83 1.228l-.006.009-.006.008c-.536.723-.763 1.655-.692 2.662v.002c.042.615.129 1.286.306 1.933 1.225 4.215 3.254 7.94 6.065 11.143.577.65 1.318 1.225 2.078 1.67l.005.003c1.033.614 2.56.352 3.531-.707L17 19.99c.243-.26.24-.374.24-.403-.003-.064-.043-.281-.414-.72-.277-.318-.571-.616-.89-.94l-.009-.01c-.307-.311-.639-.647-.958-1.012-.388-.417-.674-.598-.896-.664-.181-.054-.43-.064-.843.143-.352.181-.739.31-1.154.305a1.96 1.96 0 01-1.123-.376 3.554 3.554 0 01-.726-.724c-.191-.244-.387-.53-.58-.812l-.026-.037-.005-.007c-.739-1.116-1.166-2.001-1.428-2.544l-.092-.191c-.398-.78-.772-1.57-.807-2.354-.04-.908.363-1.625 1.02-2.276.115-.122.26-.341.368-.601.11-.265.14-.463.135-.553-.111-.893-.341-1.712-.59-2.599-.12-.426-.244-.869-.362-1.343a.946.946 0 00-.103-.267zm1-1.736c.583.346.882.937 1.034 1.52l.002.01c.087.35.192.724.301 1.116.27.966.57 2.038.7 3.097l.002.017.002.018c.046.536-.101 1.082-.282 1.513a4.057 4.057 0 01-.774 1.217l-.009.01-.01.01c-.426.419-.449.626-.442.777.013.28.163.69.591 1.531l.004.007.003.007.102.21c.259.535.63 1.305 1.287 2.297.21.307.372.542.52.731.152.193.245.28.3.319l.007.005a.85.85 0 00.215-.085l.01-.005c.765-.385 1.536-.5 2.302-.273.725.216 1.312.702 1.808 1.237l.011.011.01.012c.28.32.575.62.895.945l.01.01c.31.315.646.656.968 1.025l.005.006.005.005c.497.587.873 1.238.899 1.968.026.763-.335 1.366-.772 1.833-1.487 1.617-4.015 2.238-5.999 1.061-.905-.53-1.824-1.234-2.568-2.074l-.004-.004c-3.015-3.435-5.188-7.43-6.493-11.927l-.003-.007-.001-.007a11.994 11.994 0 01-.376-2.338c-.097-1.384.206-2.81 1.072-3.982C4.854 1.016 5.854.44 6.972.118c.55-.162 1.197-.199 1.786.15z" fill="#0AD9C6"/></svg>