<svg xmlns="http://www.w3.org/2000/svg">
<defs>
<clipPath id="clip0"> <rect width="12" height="7.4" fill="white" transform="translate(0 12) rotate(-90)"/> </clipPath>
</defs>
<symbol id="arrow" viewBox="0 0 8 12"> <g clip-path="url(#clip0)"> <path fill-rule="evenodd" clip-rule="evenodd" d="M0 1.4L4.6 6L0 10.6L1.4 12L7.4 6L1.4 0L0 1.4Z" fill="#2C2E3F" fill-opacity="0.5"/> </g>  </symbol>
<symbol id="logo" viewBox="0 0 68 21"> <path d="M13.3636 0V20.0455H10.0705V5.82273L8.97273 7.20682L6.825 9.975L6.72954 10.0705L6.58636 9.975L4.43864 7.20682L3.34091 5.775V20.0455H0V0H3.34091L6.72954 4.29545L10.0705 0H13.3636Z" fill="#0AD9C6"/> <path d="M8.30444 10.0704L8.20898 9.97498L8.30444 10.0704Z" fill="#0AD9C6"/> <path d="M8.44787 9.97498L8.35241 10.0704H8.30469L8.44787 9.97498Z" fill="#0AD9C6"/> <path d="M38.2092 5.61453L29.0823 12.316L31.1955 15.194L40.3224 8.49252L38.2092 5.61453Z" fill="#0AD9C6"/> <path d="M26.6674 3C22.8035 3 19.6243 6.13028 19.6243 10.0431C19.6243 13.9071 22.7546 17.0863 26.6674 17.0863C30.5313 17.0863 33.7105 13.956 33.7105 10.0431C33.7105 6.17919 30.5313 3 26.6674 3ZM26.6674 13.2712C24.8577 13.2712 23.4393 11.8039 23.4393 10.0431C23.4393 8.23344 24.9066 6.81503 26.6674 6.81503C28.4282 6.81503 29.8955 8.28235 29.8955 10.0431C29.8955 11.8039 28.4282 13.2712 26.6674 13.2712Z" fill="#0AD9C6"/> <path d="M43.6396 3C39.7756 3 36.5964 6.13028 36.5964 10.0431C36.5964 13.9071 39.7267 17.0863 43.6396 17.0863C47.5035 17.0863 50.6827 13.956 50.6827 10.0431C50.6338 6.17919 47.5035 3 43.6396 3ZM43.6396 13.2712C41.8299 13.2712 40.4115 11.8039 40.4115 10.0431C40.4115 8.23344 41.8788 6.81503 43.6396 6.81503C45.4004 6.81503 46.8677 8.28235 46.8677 10.0431C46.8677 11.8039 45.4004 13.2712 43.6396 13.2712Z" fill="#0AD9C6"/> <path d="M67.5977 0.238647V20.2841H64.2568V9.87956L61.4409 7.20683L59.3409 5.15456V20.2841H56V0.238647H59.2932H59.3409L63.2545 4.0091L64.2568 4.96365V0.238647H67.5977Z" fill="#0AD9C6"/> <rect x="37" y="3" width="6" height="4" fill="#0AD9C6"/> </symbol>
<symbol id="mail" viewBox="0 0 26 21"> <path d="M24.2273 0.117676H1.77273C0.768182 0.117676 0 0.882382 0 1.88238V18.353C0 19.353 0.768182 20.1177 1.77273 20.1177H24.2273C25.2318 20.1177 26 19.353 26 18.353V1.88238C26 0.882382 25.2318 0.117676 24.2273 0.117676ZM24.2273 17.1177L19.5591 12.4706C19.2045 12.1177 18.6727 12.1177 18.3182 12.4706C17.9636 12.8236 17.9636 13.353 18.3182 13.7059L22.9864 18.353H3.01362L7.68182 13.7059C8.03636 13.353 8.03636 12.8236 7.68182 12.4706C7.32727 12.1177 6.79547 12.1177 6.44092 12.4706L1.77273 17.1177V5.82353L12.4091 13.8236C12.5864 13.9412 12.7636 14 12.9409 14C13.1182 14 13.2954 13.9412 13.4727 13.8236L24.2273 5.82353V17.1177ZM24.2273 1.88238V3.58828L12.9409 11.9412L1.77273 3.58828V1.88238H24.2273Z" fill="#0AD9C6"/> </symbol>
<symbol id="phone" viewBox="0 0 23 24"> <path fill-rule="evenodd" clip-rule="evenodd" d="M7.75688 2.00536C7.72175 2.00579 7.65634 2.01293 7.54957 2.0446L7.54105 2.04713C6.74912 2.27433 6.16462 2.63528 5.71097 3.27524L5.70491 3.2838L5.69866 3.29222C5.16258 4.01543 4.9358 4.94668 5.0069 5.95419L5.00702 5.95579C5.04947 6.57121 5.13553 7.24202 5.31258 7.8892C6.53751 12.1043 8.56704 15.8293 11.3776 19.0324C11.9546 19.6825 12.6957 20.2569 13.4556 20.7022L13.4607 20.7053C14.4943 21.3193 16.0209 21.0569 16.9924 19.9981L16.9998 19.9901C17.2433 19.7305 17.2405 19.6164 17.2395 19.5874C17.2372 19.5231 17.1969 19.3059 16.8257 18.8665C16.5487 18.5493 16.2549 18.2507 15.9363 17.9273L15.927 17.9178C15.6195 17.6057 15.2883 17.2696 14.9694 16.905C14.5806 16.4885 14.2949 16.3067 14.0735 16.2408C13.8917 16.1867 13.6433 16.1772 13.2302 16.384C12.878 16.5654 12.4912 16.6935 12.0757 16.6888C11.6381 16.6838 11.2639 16.5329 10.9528 16.3131C10.6613 16.1073 10.4243 15.8406 10.2273 15.5893C10.0357 15.345 9.84019 15.0597 9.64631 14.7768L9.62083 14.7396L9.61645 14.733C8.877 13.6172 8.45002 12.7318 8.18817 12.1889C8.15478 12.1196 8.12407 12.0559 8.09574 11.998C7.69846 11.2178 7.32376 10.4273 7.28877 9.64397C7.24822 8.736 7.6519 8.01878 8.30905 7.36802C8.42406 7.2456 8.56816 7.02699 8.6769 6.76698C8.78766 6.50217 8.81607 6.30435 8.8117 6.21353C8.70061 5.32088 8.47076 4.50245 8.22161 3.61529C8.10182 3.18872 7.97756 2.74627 7.85989 2.27203C7.81983 2.11911 7.77986 2.04102 7.75688 2.00536ZM8.75755 0.269407C9.34021 0.615106 9.63921 1.20553 9.79053 1.78891L9.7933 1.79956C9.87978 2.14847 9.98454 2.52296 10.0943 2.91497C10.3646 3.88079 10.6648 4.95312 10.794 6.01223L10.7961 6.02936L10.7976 6.04654C10.8445 6.58281 10.6968 7.12922 10.5164 7.56046C10.3315 8.00257 10.0611 8.44562 9.74244 8.77717L9.73303 8.78696L9.72336 8.79648C9.29736 9.21588 9.27431 9.42267 9.28108 9.57421C9.29355 9.85345 9.44363 10.2633 9.87244 11.1051L9.87599 11.1121L9.87944 11.1191C9.91145 11.1844 9.94517 11.2543 9.98105 11.3286C10.2399 11.8645 10.6112 12.6336 11.2682 13.6258C11.4789 13.9333 11.64 14.1679 11.7885 14.3573C11.9395 14.5499 12.0335 14.6373 12.0878 14.6756C12.0905 14.6775 12.0929 14.6792 12.095 14.6806C12.1248 14.6748 12.1928 14.656 12.3097 14.5955L12.3194 14.5905C13.0847 14.2055 13.8559 14.0901 14.6217 14.3181C15.3466 14.5338 15.9336 15.0198 16.4304 15.5545L16.4413 15.5662L16.4518 15.5783C16.7302 15.8975 17.0255 16.1977 17.346 16.523L17.3553 16.5325C17.6664 16.8482 18.0017 17.1886 18.324 17.5581L18.3288 17.5636L18.3335 17.5691C18.8308 18.1559 19.2069 18.8071 19.2325 19.5368C19.2594 20.2998 18.8978 20.9031 18.4606 21.3703C16.9741 22.9868 14.4463 23.608 12.462 22.4311C11.5565 21.9001 10.6384 21.1969 9.89354 20.357L9.89008 20.3531C6.87494 16.9176 4.7022 12.923 3.39653 8.4261L3.39448 8.41901L3.39252 8.4119C3.1662 7.58786 3.06549 6.77027 3.01749 6.07443C2.92007 4.68959 3.22317 3.26468 4.08919 2.0915C4.85385 1.0172 5.85395 0.440566 6.97199 0.119105C7.52144 -0.0430759 8.16859 -0.0800259 8.75755 0.269407Z" fill="#0AD9C6"/> </symbol>
<symbol id="play-icon" viewBox="0 0 65 65"> <path fill-rule="evenodd" clip-rule="evenodd" d="M32.5 65C50.4493 65 65 50.4493 65 32.5C65 14.5507 50.4493 0 32.5 0C14.5507 0 0 14.5507 0 32.5C0 50.4493 14.5507 65 32.5 65Z" fill="#0AD9C6"/> <path fill-rule="evenodd" clip-rule="evenodd" d="M28.6001 23.3999L41.6001 32.4999L28.6001 41.5999V23.3999Z" fill="#070707"/> </symbol>
</svg>